<svg id="Capa_1" data-name="Capa 1" xmlns="http://www.w3.org/2000/svg" viewBox="0 0 981.23 714.3"><defs><style>.cls-1{fill:#d9d8d6;}.cls-2{fill:#54565a;}.cls-3{fill:red;}.cls-4{font-size:109.26px;font-family:CenturyGothic-Bold, Century Gothic;font-weight:700;}.cls-5,.cls-6{fill:#fff;font-weight:400;}.cls-5{font-family:CenturyGothic, Century Gothic;}.cls-6{font-size:115.87px;font-family:RageItalic, Rage Italic;}.cls-7{letter-spacing:0.12em;}</style></defs><path class="cls-1" d="M954.38,464.46c-27.36,132.06-130,204.09-154.93,221-159.8,108.57-346.37,53.12-399,37.49C237.21,674.47,25.1,529.19,35.11,381.41,50.13,159.56,566.63-81,813.73,100.86,909.24,171.18,984.47,319.31,954.38,464.46Z" transform="translate(-34.77 -36.75)"/><path class="cls-2" d="M645.43,274.59a11.65,11.65,0,0,0-8,8.66c-1,4.86,2.47,6.64,1.73,11-1,6-8.2,5.78-10.57,10.95-4.55,9.93-15.86,15.69-25.24,22.61-5.91,4.36-12.71,8-16.93,16.48-7.4,14.91-.28,32.78,3,59.8,6.12,50.32,5,55.29,10.61,79,6.08,25.84,9.81,35.93,18.73,43.85,3.76,3.33,10.53,8.24,28.41,12.48s45.81,10.86,79.16-.61c9.66-3.32,43.5-16.31,60.94-46.48,3.85-6.66,14.16-24.48,12.2-47-.41-4.66-1-12-17.14-47.91-13-29-21.82-44.77-35.32-68.89-12.48-22.31-14.25-23.89-16.78-25.37-19.74-11.55-53,1.86-62.83-8.77a57.81,57.81,0,0,1-5.55-6.85c-3.9-6-3.51-8.66-6.84-11.1C654.59,276.21,650.4,273.25,645.43,274.59Z" transform="translate(-34.77 -36.75)"/><path d="M673.25,570a143.09,143.09,0,0,1-32.12-3.46c-32.51-7.49-53.83-27-61.65-56.39-6.39-24-11.31-118.44-13.14-157.91a24.32,24.32,0,0,1,9.89-20.72l41.54-30.62A24.17,24.17,0,0,1,626,297l41.51-11a24.34,24.34,0,0,1,9.07-.66l51.27,5.94h0a24.31,24.31,0,0,1,18.87,13.07c18,35.16,60.67,119.55,67.05,143.57,7.83,29.39-1,56.9-25.47,79.56-25.81,23.89-59.34,34.14-69,36.71A187.18,187.18,0,0,1,673.25,570Zm.48-279.12a18.38,18.38,0,0,0-4.77.63l-41.51,11a18.35,18.35,0,0,0-6.25,3l-41.54,30.63A18.5,18.5,0,0,0,572.12,352c1.42,30.66,6.53,132.55,13,156.7,7.34,27.58,26.64,45.15,57.36,52.24,33,7.6,66,.09,75.34-2.39s41.73-12.38,66.56-35.36c23.14-21.41,31.15-46.26,23.82-73.84-6.42-24.13-52.62-115.11-66.62-142.42a18.54,18.54,0,0,0-14.39-10L675.87,291A17.07,17.07,0,0,0,673.73,290.88Z" transform="translate(-34.77 -36.75)"/><path d="M665.06,429.56a2.9,2.9,0,0,1-2.85-2.41A408.56,408.56,0,0,0,623.05,309.2a2.92,2.92,0,0,1-.07-2.5,2.89,2.89,0,0,1,1.9-1.61l46.65-12.42a2.9,2.9,0,0,1,3.63,2.64A432.19,432.19,0,0,0,699.8,417.18a2.93,2.93,0,0,1-.16,2.32,2.89,2.89,0,0,1-1.82,1.44l-32,8.52A2.76,2.76,0,0,1,665.06,429.56Zm-35.24-119.8a414.52,414.52,0,0,1,37.55,113.3l25.93-6.9a437.25,437.25,0,0,1-23.7-117Z" transform="translate(-34.77 -36.75)"/><path d="M673.19,559.28c-4.6,0-8.21-.21-10.59-.41a6.81,6.81,0,0,1-6-4.91c-9.19-30.81-24.58-48.59-39.46-65.79C606.27,475.59,596,463.7,588.6,447.5c-16.12-35.38-12.51-91.93-11.62-102.91a6.89,6.89,0,0,1,2.74-4.93l27.5-20.5c.45-.33,17-13.79,17-13.79l47-12.61,56.34,7.62a6.83,6.83,0,0,1,4.33,2.83c6.24,9.09,37.54,56.39,41.14,95.23,1.65,17.72-1.37,33.15-4.57,49.48-4.38,22.33-8.9,45.41-1.56,76.72a6.83,6.83,0,0,1-2.7,7.21,157.1,157.1,0,0,1-48.34,21.78A167.53,167.53,0,0,1,673.19,559.28Zm-90-215a1,1,0,0,0-.44.76c-.86,10.72-4.4,66,11.13,100.05,7,15.43,17,27,27.67,39.27,15.28,17.66,31.09,35.92,40.63,67.92a1.09,1.09,0,0,0,.91.81,155.53,155.53,0,0,0,51.29-5.06c24.13-6.42,40.57-16.78,46.51-20.94a1.06,1.06,0,0,0,.39-1.15c-7.63-32.52-3-56.23,1.51-79.15,3.12-15.91,6.06-30.94,4.5-47.84-3.48-37.41-34.06-83.6-40.16-92.49a1.05,1.05,0,0,0-.68-.43l-56.84-6.88-39.78,10.59ZM609,321.48h0Z" transform="translate(-34.77 -36.75)"/><path d="M636.67,300a2.9,2.9,0,0,1-2.79-2.15L631.52,289a14.05,14.05,0,1,1,27.16-7.22l2.36,8.85a2.9,2.9,0,0,1-2,3.54l-21.57,5.74A2.76,2.76,0,0,1,636.67,300Zm8.43-22.89a8.18,8.18,0,0,0-2.12.28,8.27,8.27,0,0,0-5.87,10.11l1.62,6.07,16-4.26-1.61-6.06A8.3,8.3,0,0,0,645.1,277.11Z" transform="translate(-34.77 -36.75)"/><path d="M746.56,714.36c-66.23,0-133.35-26.81-181-72.65a2.89,2.89,0,1,1,4-4.17c48.61,46.71,117.83,73.19,185.22,70.9S889.36,674.91,934.64,625c52.44-57.85,79.79-144.3,75.05-237.18-4.9-95.83-42.74-181.85-103.84-236-69.41-61.52-170.13-78.11-244.93-40.35-28.63,14.45-49.22,37-55.07,60.4-5,20,1.85,24,12.21,30,7.23,4.24,15.43,9,20.71,20.12,4,8.3,1,19.25-.88,26.49-1.4,5.31.64,9.34,3,14,1.8,3.55,3.66,7.21,4.21,11.74a2.9,2.9,0,0,1-5.75.7c-.42-3.52-2-6.58-3.62-9.82-2.53-5-5.41-10.66-3.44-18.1,1.71-6.43,4.28-16.15,1.25-22.52C629,215,622,210.88,615.14,206.88c-10.77-6.31-20.95-12.27-14.9-36.44,6.25-25,28-49,58.07-64.16,76.86-38.82,180.23-21.88,251.38,41.18,62.25,55.17,100.8,142.65,105.77,240,4.83,94.41-23.07,182.38-76.54,241.36-46.3,51.08-115.08,83-184,85.38C752.15,714.31,749.35,714.36,746.56,714.36Z" transform="translate(-34.77 -36.75)"/><path d="M441.31,440H288.91a2.9,2.9,0,0,1-2.89-2.9V287.87a79.09,79.09,0,0,1,158.18,0V437.09A2.9,2.9,0,0,1,441.31,440Zm-149.5-5.79H438.42V287.87a73.31,73.31,0,0,0-146.61,0Z" transform="translate(-34.77 -36.75)"/><path d="M380.18,440H227.78a2.9,2.9,0,0,1-2.89-2.9V287.87a79.09,79.09,0,0,1,158.18,0V437.09A2.89,2.89,0,0,1,380.18,440Zm-149.5-5.79H377.29V287.87a73.31,73.31,0,0,0-146.61,0Z" transform="translate(-34.77 -36.75)"/><path class="cls-3" d="M557.28,699.21H111.81a19.32,19.32,0,0,1-19.19-21.46L131.77,328A19.31,19.31,0,0,1,151,310.78H518.13A19.3,19.3,0,0,1,537.32,328l39.15,349.8A19.31,19.31,0,0,1,557.28,699.21Z" transform="translate(-34.77 -36.75)"/><path d="M557.28,702.6H111.81a22.21,22.21,0,0,1-22.06-24.67l39.14-349.81A22.19,22.19,0,0,1,151,308.39H518.13a22.19,22.19,0,0,1,22.07,19.73l39.15,349.81a22.22,22.22,0,0,1-22.07,24.67ZM151,314.17a16.41,16.41,0,0,0-16.32,14.59L95.49,678.57a16.42,16.42,0,0,0,16.32,18.24H557.28a16.42,16.42,0,0,0,16.32-18.24L534.45,328.76a16.41,16.41,0,0,0-16.32-14.59Z" transform="translate(-34.77 -36.75)"/><path d="M206.9,377.15a14.4,14.4,0,1,1,14.4-14.4A14.41,14.41,0,0,1,206.9,377.15Zm0-23a8.61,8.61,0,1,0,8.61,8.61A8.62,8.62,0,0,0,206.9,354.14Z" transform="translate(-34.77 -36.75)"/><path d="M459.28,377.15a14.4,14.4,0,1,1,14.4-14.4A14.41,14.41,0,0,1,459.28,377.15Zm0-23a8.61,8.61,0,1,0,8.62,8.61A8.62,8.62,0,0,0,459.28,354.14Z" transform="translate(-34.77 -36.75)"/><path d="M459.28,365.64H206.9a2.89,2.89,0,0,1,0-5.78H459.28a2.89,2.89,0,1,1,0,5.78Z" transform="translate(-34.77 -36.75)"/><text class="cls-4" transform="translate(98.55 477.64)">Fashion<tspan class="cls-5" x="399.9" y="0"> </tspan><tspan class="cls-6"><tspan class="cls-7" x="0" y="90.82" xml:space="preserve">				</tspan><tspan x="172.41" y="90.82">Store</tspan></tspan></text></svg>